<svg id="Group_426" data-name="Group 426" xmlns="http://www.w3.org/2000/svg" width="43.296" height="42.638" viewBox="0 0 43.296 42.638">
  <path id="Path_260" data-name="Path 260" d="M23.872,16.791a2.235,2.235,0,0,0,1.756,1.5l1.458.243a2.227,2.227,0,0,1,1.7,1.368A3.789,3.789,0,0,0,25.163,15h-1.37a3.789,3.789,0,0,0-3.606,4.968,2.963,2.963,0,0,1,1.689-1.745l.85-.34a3.77,3.77,0,0,1-.271-.62l-.178-.534,1.416-.472Z" transform="translate(-7.31 -6.042)" fill="#f36c32"/>
  <path id="Path_261" data-name="Path 261" d="M16.706,45.753a6.623,6.623,0,0,1-.742.218l-2.532,8.017,3.594-.514,1.347-4.041,1.416.473-1.347,4.041,2.53,2.529,1.061-3.447L20.916,49.4A6.679,6.679,0,0,1,16.706,45.753Z" transform="translate(-5.645 -13.838)" fill="#f36c32"/>
  <path id="Path_262" data-name="Path 262" d="M32.02,45.753a6.689,6.689,0,0,1-6.108,3.917c-.087,0-.172-.016-.258-.019l2.1,6.825,2.53-2.529-1.347-4.041,1.416-.473L31.7,53.475l3.594.514-2.532-8.017A6.749,6.749,0,0,1,32.02,45.753Z" transform="translate(-8.743 -13.838)" fill="#f36c32"/>
  <path id="Path_263" data-name="Path 263" d="M30.981,26.806A12.689,12.689,0,1,1,20.169,7.479a12.735,12.735,0,0,1,10.758,5.97,9.495,9.495,0,0,0,2.733-.414,5.214,5.214,0,0,0-7.453-5.949l-.788.41-.268-.847a5.226,5.226,0,0,0-9.964,0l-.268.847-.788-.41a5.225,5.225,0,0,0-7.045,7.045l.41.788-.847.268a5.225,5.225,0,0,0,0,9.963l.847.268-.41.788a5.226,5.226,0,0,0,7.045,7.046l.788-.409.268.847a5.226,5.226,0,0,0,9.964,0l.268-.847.788.409a5.192,5.192,0,0,0,7.546-3.806A12.518,12.518,0,0,1,30.981,26.806Z" transform="translate(-3 -3)" fill="#f36c32"/>
  <path id="Path_264" data-name="Path 264" d="M24.986,26.089A2.991,2.991,0,0,0,27.972,23.1v-.973a.744.744,0,0,0-.624-.736l-1.458-.243a3.732,3.732,0,0,1-1.618-.688l-1.332.533A1.485,1.485,0,0,0,22,22.379V23.1a2.991,2.991,0,0,0,2.986,2.987Z" transform="translate(-7.817 -7.426)" fill="#f36c32"/>
  <path id="Path_265" data-name="Path 265" d="M54.42,18.08a10.862,10.862,0,0,1-7.209-2.71A10.859,10.859,0,0,1,40,18.08H39v4.2a11.062,11.062,0,0,0,8.211,10.7,11.062,11.062,0,0,0,8.211-10.7v-4.2Zm-8.7,10.76L42.2,25.326,43.26,24.27l2.458,2.458,6.937-6.937,1.056,1.056Z" transform="translate(-12.126 -6.136)" fill="#f36c32"/>
  <path id="Path_266" data-name="Path 266" d="M17,35.374v1.221a11.178,11.178,0,0,0,13.437.032V35.374a3,3,0,0,0-2.058-2.836l-2.272,3.788-2.388-2.388L21.33,36.326l-2.272-3.788A3,3,0,0,0,17,35.374Z" transform="translate(-6.549 -10.488)" fill="#f36c32"/>
  <path id="Path_267" data-name="Path 267" d="M29.482,32.14l-.667-.1-1.244.83.919.92Z" transform="translate(-9.229 -10.363)" fill="#f36c32"/>
  <path id="Path_268" data-name="Path 268" d="M25.543,29.947h0a4.438,4.438,0,0,1-1.15-.156l-.2.6,1.351.9,1.351-.9-.2-.6a4.406,4.406,0,0,1-1.15.157Z" transform="translate(-8.372 -9.792)" fill="#f36c32"/>
  <path id="Path_269" data-name="Path 269" d="M22.862,33.794l.919-.92-1.244-.83-.667.1Z" transform="translate(-7.784 -10.363)" fill="#f36c32"/>
</svg>
