<svg xmlns="http://www.w3.org/2000/svg" width="36.662" height="42.55" viewBox="0 0 36.662 42.55">
  <g id="Group_425" data-name="Group 425" transform="translate(-1078.318 -4436.83)">
    <path id="Path_249" data-name="Path 249" d="M193.943,109.787h6.021a3.34,3.34,0,1,0-6.021,0Z" transform="translate(897.001 4339.689)" fill="#f36c32"/>
    <path id="Path_250" data-name="Path 250" d="M99.854,6.233a4.992,4.992,0,0,1,4.868,6.067h6.351V9.557a.831.831,0,0,0-.831-.831h-1.677a9,9,0,0,0-.789-1.9l1.187-1.187a.831.831,0,0,0,0-1.175l-2.351-2.351a.831.831,0,0,0-1.175,0L104.25,3.3a9,9,0,0,0-1.9-.789V.831A.831.831,0,0,0,101.516,0H98.192a.831.831,0,0,0-.831.831V2.508a9,9,0,0,0-1.9.789L94.272,2.111a.831.831,0,0,0-1.175,0L90.746,4.461a.831.831,0,0,0,0,1.175l1.187,1.187a9,9,0,0,0-.789,1.9H89.466a.831.831,0,0,0-.831.831V12.3h6.354a4.988,4.988,0,0,1,4.866-6.067Z" transform="translate(994.106 4436.83)" fill="#f36c32"/>
    <path id="Path_251" data-name="Path 251" d="M71.874,189.606l-4.892-7.316A14.781,14.781,0,0,0,66.1,178H36.338A14.975,14.975,0,0,0,45.4,197.26v7.251a1.247,1.247,0,0,0,1.247,1.247H60.857A1.247,1.247,0,0,0,62.1,204.51v-6.4H65.76a1.247,1.247,0,0,0,1.247-1.247v-5.319h3.831A1.248,1.248,0,0,0,71.874,189.606Z" transform="translate(1042.894 4273.622)" fill="#f36c32"/>
  </g>
</svg>
