<svg xmlns="http://www.w3.org/2000/svg" width="1921.216" height="1102.824" viewBox="0 0 1921.216 1102.824">
  <g id="Group_499" data-name="Group 499" transform="translate(0.476 119.699)">
    <path id="Path_277" data-name="Path 277" d="M125.347-1840.393c58.9-64.7,54.306-120.515,173.7-153.592s278.3,83.489,345.027,72.231,74.535-22.416,153.766-151.637,135.8-43.458,230.978-34.81c86.157,7.829,178.375,11.2,219.58,114.216,86.747,216.867,167.836-220.639,369.617,92.4s316.723-194.385,316.723-194.385l-.283-593.445L13.524-2690.7l.1,896.318S66.449-1775.691,125.347-1840.393Z" transform="translate(-14 2775)" fill="#1b2a4e"/>
    <path id="Path_284" data-name="Path 284" d="M125.347-1840.393c58.9-64.7,54.306-120.515,173.7-153.592s278.3,83.489,345.027,72.231,74.535-22.416,153.766-151.637,135.8-43.458,230.978-34.81c86.157,7.829,178.375,11.2,219.58,114.216,86.747,216.867,167.836-220.639,369.617,92.4s316.723-194.385,316.723-194.385l-.283-593.445L13.524-2690.7l.1,896.318S66.449-1775.691,125.347-1840.393Z" transform="translate(-14 2571)" fill="#42ba96" opacity="0.08"/>
  </g>
</svg>
