<svg id="idea_2_" data-name="idea (2)" xmlns="http://www.w3.org/2000/svg" width="33.122" height="40" viewBox="0 0 33.122 40">
  <path id="Path_224" data-name="Path 224" d="M403.183,90.75a1.183,1.183,0,0,0,0,2.366h2.366a1.183,1.183,0,0,0,0-2.366Z" transform="translate(-373.925 -83.664)" fill="#f36c32"/>
  <path id="Path_225" data-name="Path 225" d="M393.666,150.995l2.287,1.1a1.183,1.183,0,1,0,1.029-2.13l-2.287-1.1a1.183,1.183,0,1,0-1.029,2.13Z" transform="translate(-365.633 -137.136)" fill="#f36c32"/>
  <path id="Path_226" data-name="Path 226" d="M394.181,22.218a1.178,1.178,0,0,0,.513-.118l2.287-1.1a1.183,1.183,0,1,0-1.029-2.13l-2.287,1.1a1.183,1.183,0,0,0,.515,2.248Z" transform="translate(-365.633 -17.269)" fill="#f36c32"/>
  <path id="Path_227" data-name="Path 227" d="M51.183,93.116h2.366a1.183,1.183,0,1,0,0-2.366H51.183a1.183,1.183,0,0,0,0,2.366Z" transform="translate(-49.685 -83.664)" fill="#f36c32"/>
  <path id="Path_228" data-name="Path 228" d="M62.953,148.865l-2.287,1.1a1.183,1.183,0,1,0,1.029,2.13l2.287-1.1a1.183,1.183,0,1,0-1.029-2.13Z" transform="translate(-58.893 -137.137)" fill="#f36c32"/>
  <path id="Path_229" data-name="Path 229" d="M60.666,20.995l2.287,1.1a1.183,1.183,0,1,0,1.029-2.13l-2.287-1.1a1.183,1.183,0,1,0-1.029,2.13Z" transform="translate(-58.893 -17.268)" fill="#f36c32"/>
  <path id="Path_230" data-name="Path 230" d="M286.179,307.935l-4.732-5.915a1.183,1.183,0,0,0-.984-.527H271V305.4l2.565,3.847a1.183,1.183,0,0,0,.984.527H285.2a1.183,1.183,0,0,0,.984-1.839Z" transform="translate(-253.256 -277.997)" fill="#f36c32"/>
  <path id="Path_231" data-name="Path 231" d="M50.93,302.021,46.2,307.935a1.183,1.183,0,0,0,.984,1.839H57.829a1.183,1.183,0,0,0,.984-.527l2.565-3.847v-3.907H51.915A1.183,1.183,0,0,0,50.93,302.021Z" transform="translate(-46 -277.997)" fill="#f36c32"/>
  <path id="Path_232" data-name="Path 232" d="M271.6,406.013l-.6-.894v8.429h9.463a1.183,1.183,0,0,0,1.183-1.183v-4.772h-7.1A3.541,3.541,0,0,1,271.6,406.013Z" transform="translate(-253.256 -373.548)" fill="#f36c32"/>
  <path id="Path_233" data-name="Path 233" d="M113.1,407.593H106v4.772a1.183,1.183,0,0,0,1.183,1.183h9.463v-8.429l-.6.894A3.542,3.542,0,0,1,113.1,407.593Z" transform="translate(-101.268 -373.548)" fill="#f36c32"/>
  <path id="Path_234" data-name="Path 234" d="M199.783,228.739h8.867v3.372h-8.867Z" transform="translate(-187.655 -210.884)" fill="#f36c32"/>
  <path id="Path_235" data-name="Path 235" d="M160.3,15.673h8.867c0-.525.359-.986.99-1.754a8.727,8.727,0,0,0,2.39-6.1,7.814,7.814,0,0,0-15.628,0,8.728,8.728,0,0,0,2.39,6.1C159.938,14.687,160.3,15.148,160.3,15.673Zm1.87-6.224a1.183,1.183,0,0,1,1.64-.328l.923.616.923-.616a1.183,1.183,0,0,1,1.312,1.968l-1.579,1.053a1.182,1.182,0,0,1-1.312,0l-1.579-1.053A1.183,1.183,0,0,1,162.166,9.449Z" transform="translate(-148.169)" fill="#f36c32"/>
</svg>
