<svg xmlns="http://www.w3.org/2000/svg" width="40.377" height="40" viewBox="0 0 40.377 40">
  <g id="money-bag" opacity="0.7">
    <path id="Path_236" data-name="Path 236" d="M93.853,7.176h8.834A21.005,21.005,0,0,1,106.2,2.011a1.122,1.122,0,0,0,.26-1.278A1.18,1.18,0,0,0,105.368,0a6.831,6.831,0,0,0-4.211,1.372,4.361,4.361,0,0,1-2.886.994,4.361,4.361,0,0,1-2.886-.994A6.831,6.831,0,0,0,91.172,0a1.18,1.18,0,0,0-1.088.733,1.122,1.122,0,0,0,.26,1.278,21,21,0,0,1,3.508,5.165Z" transform="translate(-82.892 0)" fill="#14212b"/>
    <path id="Path_237" data-name="Path 237" d="M301,453.183v2.366a1.183,1.183,0,0,0,1.183,1.183h14.274a1.183,1.183,0,0,0,1.183-1.183v-2.366A1.183,1.183,0,0,0,316.457,452H302.183A1.183,1.183,0,0,0,301,453.183Z" transform="translate(-277.263 -416.732)" fill="#14212b"/>
    <path id="Path_238" data-name="Path 238" d="M317.64,365.549v-2.366A1.183,1.183,0,0,0,316.457,362H302.183A1.183,1.183,0,0,0,301,363.183v2.366a1.183,1.183,0,0,0,1.183,1.183h14.274A1.183,1.183,0,0,0,317.64,365.549Z" transform="translate(-277.263 -333.754)" fill="#14212b"/>
    <path id="Path_239" data-name="Path 239" d="M23.588,130.59c-2.319-2.271-4.211-4.2-4.59-7.224H20.11a1.183,1.183,0,1,0,0-2.366H10.646a1.183,1.183,0,1,0,0,2.366h1.112c-.379,3.028-2.271,4.953-4.59,7.224C3.809,133.878,0,137.616,0,146.157a5.887,5.887,0,0,0,5.915,5.678h15.6a3.509,3.509,0,0,1-.218-1.183v-9.463a3.553,3.553,0,0,1,3.549-3.549h4.237A24,24,0,0,0,23.588,130.59Zm-8.21,7.05a3.54,3.54,0,0,1,1.183,6.88v1.4a1.183,1.183,0,1,1-2.366,0v-1.4a3.543,3.543,0,0,1-2.366-3.331,1.183,1.183,0,0,1,2.366,0,1.183,1.183,0,1,0,1.183-1.183,3.54,3.54,0,0,1-1.183-6.88v-1.4a1.183,1.183,0,0,1,2.366,0v1.4a3.543,3.543,0,0,1,2.366,3.331,1.183,1.183,0,0,1-2.366,0,1.183,1.183,0,1,0-1.183,1.183Z" transform="translate(0 -111.835)" fill="#14212b"/>
  </g>
</svg>
