<svg xmlns="http://www.w3.org/2000/svg" width="57.553" height="57.496" viewBox="0 0 57.553 57.496">
  <g id="Group_433" data-name="Group 433" transform="translate(-405 -3368)">
    <path id="Path_252" data-name="Path 252" d="M57.535,25.936h0a3.3,3.3,0,0,0-1.274-2.271l-3.276-2.55,1.231-4.063a3.289,3.289,0,0,0-2.4-4.158L47.7,11.932l-.526-4.2a3.29,3.29,0,0,0-3.884-2.822l-4.156.8L36.94,2.087A3.324,3.324,0,0,0,32.686.819,1.958,1.958,0,0,0,32.38,1L28.773,3.508,25.3,1.089a3.29,3.29,0,0,0-4.7,1L18.417,5.709l-4.157-.8a3.29,3.29,0,0,0-3.883,2.822l-.526,4.2L5.493,12.95l-.2.067-.076.033a3.292,3.292,0,0,0-1.883,4l1.231,4.063L1.144,23.772l-.2.172L.891,24a3.33,3.33,0,0,0-.107,4.413l2.675,3.2L1.291,35.55l-.087.2-.025.073A3.329,3.329,0,0,0,2.892,39.9l3.831,1.8-.359,4.216a3.29,3.29,0,0,0,3.212,3.568l4.231.084,1.388,4a3.289,3.289,0,0,0,4.386,1.953l3.9-1.644,3.061,3.266.16.143.062.046A3.379,3.379,0,0,0,28.774,58a3.277,3.277,0,0,0,2.4-1.033l2.894-3.087,3.9,1.644a3.29,3.29,0,0,0,4.384-1.953l1.388-4,4.475-.089.212-.023.076-.015a3.33,3.33,0,0,0,2.678-3.524L50.824,41.7l3.831-1.8a3.29,3.29,0,0,0,1.483-4.566l-2.051-3.721,2.675-3.2A3.3,3.3,0,0,0,57.535,25.936ZM28.952,43.583A14.332,14.332,0,1,1,43.284,29.251,14.348,14.348,0,0,1,28.952,43.583Zm0,0" transform="translate(405 3367.5)" fill="#f36c32"/>
    <path id="Path_253" data-name="Path 253" d="M171.043,158.8A10.957,10.957,0,1,0,182,169.758,10.97,10.97,0,0,0,171.043,158.8Zm6.506,8.893-7.85,7.85a1.687,1.687,0,0,1-2.386,0l-3-3a1.687,1.687,0,0,1,2.386-2.386l1.807,1.807,6.657-6.657a1.687,1.687,0,0,1,2.386,2.386Zm0,0" transform="translate(262.909 3226.993)" fill="#f36c32"/>
  </g>
</svg>
