<svg xmlns="http://www.w3.org/2000/svg" width="58" height="57.118" viewBox="0 0 58 57.118">
  <g id="Group_432" data-name="Group 432" transform="translate(-1002 -3369)" opacity="0.7">
    <path id="Path_260" data-name="Path 260" d="M25.187,17.4a2.994,2.994,0,0,0,2.353,2.01l1.953.326a2.983,2.983,0,0,1,2.283,1.832A5.076,5.076,0,0,0,26.917,15H25.082a5.076,5.076,0,0,0-4.83,6.655,3.97,3.97,0,0,1,2.263-2.337l1.138-.456a5.05,5.05,0,0,1-.363-.83l-.238-.716,1.9-.632Z" transform="translate(999 3366)" fill="#14212b"/>
    <path id="Path_261" data-name="Path 261" d="M17.818,45.753a8.874,8.874,0,0,1-.994.292l-3.392,10.74,4.815-.688,1.805-5.414,1.9.633L20.144,56.73l3.389,3.388L24.954,55.5l-1.5-4.865a8.948,8.948,0,0,1-5.639-4.882Z" transform="translate(999 3366)" fill="#14212b"/>
    <path id="Path_262" data-name="Path 262" d="M34.182,45.753A8.96,8.96,0,0,1,26,51c-.117,0-.23-.021-.346-.025l2.814,9.143,3.389-3.388-1.805-5.414,1.9-.633L33.754,56.1l4.815.688-3.392-10.74A9.041,9.041,0,0,1,34.182,45.753Z" transform="translate(999 3366)" fill="#14212b"/>
    <path id="Path_263" data-name="Path 263" d="M40.484,34.891A17,17,0,1,1,26,9a17.061,17.061,0,0,1,14.412,8,12.719,12.719,0,0,0,3.661-.554,6.985,6.985,0,0,0-9.984-7.969l-1.056.549-.359-1.135a7,7,0,0,0-13.348,0l-.359,1.135-1.056-.549a7,7,0,0,0-9.438,9.438l.549,1.056-1.135.359a7,7,0,0,0,0,13.347l1.135.359-.549,1.056a7,7,0,0,0,9.438,9.439l1.056-.548.359,1.134a7,7,0,0,0,13.348,0l.359-1.134,1.056.548a6.956,6.956,0,0,0,10.108-5.1A16.77,16.77,0,0,1,40.484,34.891Z" transform="translate(999 3366)" fill="#14212b"/>
    <path id="Path_264" data-name="Path 264" d="M26,28a4.006,4.006,0,0,0,4-4v-1.3a1,1,0,0,0-.836-.986l-1.953-.326a5,5,0,0,1-2.168-.922l-1.785.714A1.99,1.99,0,0,0,22,23.031V24a4.006,4.006,0,0,0,4,4Z" transform="translate(999 3366)" fill="#14212b"/>
    <path id="Path_265" data-name="Path 265" d="M59.657,19A14.55,14.55,0,0,1,50,15.37,14.546,14.546,0,0,1,40.343,19H39v5.631A14.819,14.819,0,0,0,50,38.967,14.819,14.819,0,0,0,61,24.631V19ZM48,33.414l-4.707-4.707,1.414-1.414L48,30.586l9.293-9.293,1.414,1.414Z" transform="translate(999 3366)" fill="#14212b"/>
    <path id="Path_266" data-name="Path 266" d="M17,36.337v1.635a14.974,14.974,0,0,0,18,.043V36.337a4.022,4.022,0,0,0-2.757-3.8L29.2,37.613l-3.2-3.2-3.2,3.2-3.044-5.075A4.022,4.022,0,0,0,17,36.337Z" transform="translate(999 3366)" fill="#14212b"/>
    <path id="Path_267" data-name="Path 267" d="M30.131,32.172l-.894-.128L27.57,33.156,28.8,34.388Z" transform="translate(999 3366)" fill="#14212b"/>
    <path id="Path_268" data-name="Path 268" d="M26,30h0a5.944,5.944,0,0,1-1.541-.209l-.267.8L26,31.8l1.81-1.207-.267-.8A5.9,5.9,0,0,1,26,30Z" transform="translate(999 3366)" fill="#14212b"/>
    <path id="Path_269" data-name="Path 269" d="M23.2,34.388l1.231-1.232-1.667-1.112-.894.128Z" transform="translate(999 3366)" fill="#14212b"/>
  </g>
</svg>
