<svg xmlns="http://www.w3.org/2000/svg" width="49.112" height="57" viewBox="0 0 49.112 57">
  <g id="Group_439" data-name="Group 439" transform="translate(-1302 -3698)">
    <path id="Path_281" data-name="Path 281" d="M103.664,8.35a6.687,6.687,0,0,1,6.522,8.127h8.507V12.8a1.113,1.113,0,0,0-1.113-1.113h-2.247a12.06,12.06,0,0,0-1.057-2.549l1.59-1.59a1.113,1.113,0,0,0,0-1.574l-3.149-3.149a1.113,1.113,0,0,0-1.574,0l-1.59,1.59A12.06,12.06,0,0,0,107,3.36V1.113A1.113,1.113,0,0,0,105.891,0h-4.453a1.113,1.113,0,0,0-1.113,1.113V3.36a12.055,12.055,0,0,0-2.549,1.057l-1.59-1.59a1.113,1.113,0,0,0-1.574,0L91.463,5.976a1.113,1.113,0,0,0,0,1.574l1.59,1.59A12.06,12.06,0,0,0,92,11.689H89.748A1.113,1.113,0,0,0,88.635,12.8v3.674h8.511a6.682,6.682,0,0,1,6.518-8.127Z" transform="translate(1219.289 3698)" fill="#14212b" opacity="0.7"/>
    <path id="Path_282" data-name="Path 282" d="M84.253,193.548l-6.554-9.8A19.8,19.8,0,0,0,76.511,178H36.649a20.061,20.061,0,0,0,12.138,25.8v9.713a1.67,1.67,0,0,0,1.67,1.67H69.494a1.671,1.671,0,0,0,1.67-1.67v-8.572h4.9a1.671,1.671,0,0,0,1.67-1.67v-7.125h5.132A1.671,1.671,0,0,0,84.253,193.548Z" transform="translate(1266.576 3539.816)" fill="#14212b" opacity="0.7"/>
  </g>
</svg>
