<svg xmlns="http://www.w3.org/2000/svg" width="40.377" height="40" viewBox="0 0 40.377 40">
  <g id="success" opacity="0.7">
    <path id="Path_240" data-name="Path 240" d="M413.176,155.732h-1.853V151h-2.366v4.732h-1.774A1.183,1.183,0,0,0,406,156.915v22.554h7.176a1.183,1.183,0,0,0,1.183-1.183V156.915A1.183,1.183,0,0,0,413.176,155.732Z" transform="translate(-373.982 -139.469)" fill="#14212b"/>
    <path id="Path_241" data-name="Path 241" d="M353.5,9.542h9.463V1.183A1.183,1.183,0,0,0,361.78,0H353.5Z" transform="translate(-325.622)" fill="#14212b"/>
    <path id="Path_242" data-name="Path 242" d="M278.1,301h-5.915A1.183,1.183,0,0,0,271,302.183V317.64h8.28V302.183A1.183,1.183,0,0,0,278.1,301Z" transform="translate(-249.628 -277.64)" fill="#14212b"/>
    <path id="Path_243" data-name="Path 243" d="M143.1,361h-5.915A1.183,1.183,0,0,0,136,362.183v10.725h8.28V362.183A1.183,1.183,0,0,0,143.1,361Z" transform="translate(-125.275 -332.908)" fill="#14212b"/>
    <path id="Path_244" data-name="Path 244" d="M7.176,421H1.183A1.183,1.183,0,0,0,0,422.183v4.811a1.183,1.183,0,0,0,1.183,1.183H8.359v-5.993A1.183,1.183,0,0,0,7.176,421Z" transform="translate(0 -388.176)" fill="#14212b"/>
    <path id="Path_245" data-name="Path 245" d="M248.642,31.625a1.185,1.185,0,0,0,.059,1.214l1.928,2.893L248.7,38.624a1.183,1.183,0,0,0,.984,1.839h4.732V31h-4.732A1.183,1.183,0,0,0,248.642,31.625Z" transform="translate(-228.905 -28.555)" fill="#14212b"/>
  </g>
</svg>
